<?xml version="1.0" encoding="utf-8"?>

<svg version="1.1" id="Vrstva_1" xmlns="http://www.w3.org/2000/svg" xmlns:xlink="http://www.w3.org/1999/xlink" x="0px" y="0px" viewBox="0 0 60 60" style="enable-background:new 0 0 60 60;" xml:space="preserve">

<g>
 <path fill="#ccc" d="m44.06035,35.07586c0.09823,-0.23863 0.37205,-0.35374 0.61163,-0.25531l1.73261,0.71241l4.3985,-2.13388c0,0 -0.02939,-0.1234 0.16418,-0.257l-0.00492,0l5.59407,-2.94964l0,0c0,0 0.32985,-0.16181 0.72574,-0.03637c0.02753,0.00984 0.05576,0.01969 0.08457,0.03145c0.00393,0 0.00786,0 0.0118,0.00984c0.0007,0 0.00085,0 0.00098,0c0.39724,0.15017 0.89359,0.387 0.95047,0.64063c0.09627,0.43045 -0.22523,1.27286 -0.96299,1.57823c-0.27745,0.11511 -0.34985,-0.0737 -0.51303,-0.26516c-0.28612,-0.28713 -0.67453,-0.10683 -0.67453,-0.10683l-4.53999,2.25067c-0.27761,0.15353 -0.45398,-0.03145 -0.45398,-0.03145l-4.56067,2.21226c-0.05861,0.02857 -0.12181,0.04333 -0.18553,0.04621c-0.06677,0 -0.1338,-0.00984 -0.19703,-0.03541l-1.92648,-0.7908c-0.23941,-0.09855 -0.35387,-0.37211 -0.2556,-0.6123"/>
   <path fill="#ccc" d="m42.81657,36.10853c0.30265,0 0.48767,-0.03637 0.53021,-0.04622l14.40863,-7.50272l-0.01249,-0.31041c-0.13814,-0.07862 -0.67986,-0.25015 -1.84189,-0.52876c-0.67035,0.47042 -1.49587,0.95933 -2.45419,1.45315c-2.28117,1.17443 -4.55084,1.99199 -4.64643,2.02704l-0.0295,0.00984l-0.03777,0.00984c-0.02585,0.00984 -0.25893,0.06686 -0.53554,0.08355c-0.05291,0 -0.10395,0.00984 -0.153,0.00984c-0.80899,0 -1.13065,-0.42877 -1.25029,-0.68396c-0.09538,-0.20358 -0.11943,-0.4122 -0.14713,-0.65408c-0.06471,-0.57065 -0.13782,-1.21464 -1.04174,-1.65841c-0.76979,-0.37691 -1.74295,-0.61554 -2.74215,-0.67232c-2.46453,0.83425 -6.72173,2.33746 -7.68889,3.08492c-0.14782,0.11511 -0.22472,0.24355 -0.23491,0.39696l-0.00294,0.04033l-0.00395,0c-0.00071,0.10683 0.01682,0.4721 0.03708,0.81084c1.19072,1.92706 5.23186,3.57875 6.49617,3.93238c0.47699,0.13348 0.93163,0.20022 1.35105,0.20022l0,0"/>
   <path fill="#ccc" d="m50.867,19.04604c0.8115,-0.99942 5.42124,-7.63116 5.9698,-9.56985c0.47315,-1.67342 -0.26578,-1.97363 -0.29747,-1.98539c-0.03088,-0.00984 -0.06224,-0.02461 -0.09381,-0.04525c-0.60279,0.1252 -1.08978,0.3337 -1.17404,0.37211c-5.56187,5.05351 -8.12467,8.62217 -9.02026,10.01687c2.23246,0.69081 4.0942,1.17959 4.61574,1.21128l0,0"/>
   <path fill="#ccc" d="m48.05012,30.53443c0.2339,0 0.46247,-0.05798 0.46481,-0.06002c0.0826,-0.03049 9.06731,-3.28346 8.89997,-5.95282c-0.16917,-2.69108 -1.66771,-3.90729 -1.6829,-3.91893l-0.06588,-0.0521l0.04405,-0.07178c3.86463,-6.25315 3.98843,-9.91352 3.41167,-11.88391c-0.20955,-0.71577 -0.69522,-1.12606 -1.44515,-1.22461c0.31382,0.58734 0.33267,1.37981 0.05555,2.35906c-0.63215,2.23567 -5.86236,9.69337 -6.31764,10.09537c-0.09776,0.08655 -0.19354,0.15353 -0.45597,0.15353c-0.45363,0 -1.3861,-0.2085 -3.02294,-0.674c-0.90493,-0.25688 -1.80385,-0.53224 -2.28202,-0.6824c-0.51501,0.27704 -2.16623,1.15955 -4.03113,2.11047c-0.23592,0.12016 -0.45613,0.26036 -0.65734,0.4188c0.38122,-0.03529 0.76562,-0.05305 1.14651,-0.05305c0.27545,0 0.55141,0.00984 0.82019,0.02857c2.46769,0.17021 4.48143,1.12281 5.8233,2.75614c0.07887,0.09639 0.11579,0.21679 0.10377,0.3403c-0.01218,0.1234 -0.07178,0.23527 -0.16782,0.31533c-0.0829,0.0689 -0.18787,0.10515 -0.29532,0.10515c-0.1398,0 -0.27094,-0.06194 -0.35954,-0.17021c-1.65619,-2.01372 -4.14273,-2.43745 -5.93691,-2.43745c-0.93063,0 -1.67406,0.11175 -2.05762,0.18341c-0.5624,0.97781 -0.54139,1.95202 -0.54105,1.9621l0,0.01176c-0.00196,0.01872 -0.14733,1.9603 0.47648,2.63443c0.13681,0.14848 0.29664,0.22014 0.48885,0.22014l0,0c0.05909,0 0.12212,-0.00984 0.18685,-0.02161c0.53689,-0.11523 1.14067,-0.17525 1.74646,-0.17525c1.303,0 2.58398,0.27692 3.6067,0.77915c1.34188,0.659 1.46284,1.72011 1.53508,2.3557c0.01868,0.16349 0.03471,0.30525 0.06854,0.37871c0.06608,0.1402 0.27611,0.17021 0.44078,0.17021l0,0"/>
   <path fill="#ccc" d="m10.61503,51.26905c0.37154,0 0.7416,-0.04033 1.10014,-0.12184c1.19755,-0.26852 3.61971,-1.09449 6.64565,-2.26231c4.01946,-1.79345 11.22384,-5.54902 13.4256,-7.97974c1.43348,-1.58339 1.69308,-2.67116 1.65837,-3.30519c-0.03481,-0.63391 -0.3602,-0.94084 -0.39706,-0.97265c-0.67253,-0.55553 -1.70509,-1.24129 -2.7917,-1.34644c-0.55407,-0.05305 -1.02239,-0.0767 -1.51839,-0.0767c-1.5973,0 -3.45505,0.26372 -5.82915,0.82921c1.0027,0.48891 2.06077,0.86594 3.14939,1.12114c1.47668,0.34546 2.32457,1.11453 2.38712,2.16232c0.09627,1.61664 -1.64518,3.54358 -3.96441,4.38779c-1.50855,0.54892 -2.9587,0.82753 -4.31008,0.82753c-0.75795,0 -1.27981,-0.09051 -1.53058,-0.13348c-0.06459,-0.00984 -0.12529,-0.01969 -0.14215,-0.01969l-0.01238,0l-0.00885,0c-0.06206,-0.00984 -0.13581,-0.01668 -0.2189,-0.02353c-0.03157,0 -0.06303,-0.00984 -0.0943,-0.00984c0.22624,0.11331 0.49618,0.27692 0.7139,0.48878c0.03235,0.03541 0.06156,0.06686 0.09264,0.09843l0.19402,0.19518l-0.03708,-0.00984c0.20756,0.28028 0.52822,0.83257 0.39075,1.42975c-0.12413,0.53896 -0.58994,0.98441 -1.3846,1.32483c-3.20862,1.38305 -4.94273,2.09547 -5.15395,2.11875c-0.01298,0 -0.03019,0 -0.05173,0c-0.20687,0 -0.84852,-0.0797 -1.7366,-0.18845c-1.4348,-0.17693 -3.58535,-0.44053 -5.21202,-0.51892c0.3537,0.32362 2.27066,1.97543 4.63643,1.97543l0,0"/>
   <path fill="#ccc" d="m11.33593,39.47529c0.14097,0 0.27443,-0.0551 0.37588,-0.15353c0.21389,-0.20682 0.21956,-0.54892 0.01239,-0.76235l-1.59463,-1.64833c-0.10178,-0.10515 -0.24025,-0.16361 -0.38707,-0.16361c-0.14181,0 -0.27527,0.05318 -0.37705,0.15184c-0.21356,0.20694 -0.21855,0.55061 -0.0117,0.76415l1.59397,1.64677c0.10278,0.10671 0.24075,0.16505 0.38824,0.16505l0,0"/>
   <path fill="#ccc" d="m12.86758,49.10493c0.57131,-0.18678 3.25582,-1.32748 4.81539,-2.00592l0.00983,0c0.39333,-0.16721 0.63425,-0.4032 0.7139,-0.6884c0.10424,-0.39336 -0.09145,-0.78659 -0.19174,-0.9538l-0.12784,-0.17706c-0.25272,-0.34414 -0.77192,-0.51123 -1.54384,-0.51123c-0.83779,0 -1.76901,0.19662 -2.38556,0.32446c-0.23501,0.05906 -0.42185,0.09831 -0.53002,0.10815c-0.04032,0.00984 -0.07571,0.00984 -0.10718,0.00984c-0.13963,0 -0.22715,-0.04921 -0.25961,-0.12784c-0.06489,-0.16721 0.14947,-0.38351 0.24387,-0.47198l0.01181,-0.00984l0.01376,-0.00985c2.22233,-1.00302 3.95104,-1.11117 4.59119,-1.11117c0.16028,0 0.25959,0.00985 0.28909,0.00985c0.03049,0 0.059,-0.00985 0.08752,-0.00985c0.09145,0 0.17602,0.01969 0.29304,0.03938c0.24484,0.03925 0.70012,0.11799 1.37568,0.11799c0.34416,0 0.70505,-0.01968 1.07281,-0.05906c0.93909,-0.10815 1.92635,-0.34414 2.93624,-0.70797c2.1004,-0.76703 3.44264,-2.4288 3.37874,-3.5006c-0.0472,-0.79656 -0.95089,-1.17023 -1.70019,-1.34716c-0.91254,-0.21642 -1.80933,-0.51135 -2.66877,-0.88502l0.00492,0.01968l-0.24583,-0.11799c-0.41595,-0.1869 -0.82699,-0.39336 -1.22031,-0.61951c-4.00513,-2.15356 -4.08576,-3.77608 -4.08674,-3.83502c-0.00393,-0.03938 0.00492,-0.07874 0.0295,-0.09831c0.02164,-0.02953 0.05113,-0.03937 0.08456,-0.03937c0.09637,0 0.2124,0.10815 0.62933,0.5212c0.09637,0.0983 0.1947,0.19662 0.29304,0.29493c0.07571,-0.67844 0.31662,-1.55362 0.46217,-2.05513c0.0767,-0.31462 0.07276,-0.56045 -0.01082,-0.65888c-0.03049,-0.02941 -0.21044,-0.19662 -0.8673,-0.19662c-0.17503,0 -0.37071,0.00984 -0.58213,0.02953c-1.2626,0.1474 -3.08177,0.70797 -5.25788,1.61268c-2.66287,1.12089 -3.27942,1.70115 -4.39747,2.75326c-0.72275,0.67856 -1.62053,1.52422 -3.30499,2.76322c-2.67663,1.96667 -3.86548,4.48394 -4.33944,5.82126l0.3481,3.09752l1.68248,1.68146c0.43857,0.21643 0.89188,0.32458 1.38454,0.32458c0,0 0,0 0,0c0.12782,0 0.26156,-0.00984 0.39726,-0.01968c0.24682,-0.02953 0.55362,-0.03937 0.9086,-0.03937c1.72083,0 4.30996,0.31473 6.2009,0.55072c0.62443,0.07862 1.3285,0.15737 1.56941,0.17693l0,0zm-11.21001,-4.88714c0.35007,0 0.70703,0.36383 0.86927,0.88502c0.18684,0.60966 0.03639,1.17011 -0.34219,1.28811c-0.04327,0.00985 -0.09048,0.01969 -0.13866,0.01969c-0.3481,0 -0.70505,-0.36383 -0.8673,-0.89475c-0.18682,-0.59994 -0.03637,-1.17023 0.34221,-1.27838c0.04327,-0.01968 0.08949,-0.01968 0.13668,-0.01968l0,0zm13.48937,-7.87651l-0.14061,0.04921c-5.96294,2.25175 -9.65831,6.2343 -9.69469,6.27367l-0.07079,0.06878l-1.48091,-1.65193l0.04819,-0.05906c3.37872,-4.31685 9.20891,-6.55888 9.2679,-6.57844l0.05507,-0.01968l2.01584,1.91745"/>
</g>
<script  type="text/javascript">
  <![CDATA[
         var c=window.location.search.split('color=')[1]; c=parseInt(c,16); if(!isNaN(c)){c=c.toString(16);var p=document.getElementsByTagName('path');for(var i=0,l=p.length;i<l;i++){var s=p[i].style;s.fill='#'+c;} var p2=document.getElementsByTagName('polygon');for(var i=0,l=p2.length;i<l;i++){var s=p2[i].style;s.fill='#'+c;} var p3=document.getElementsByTagName('circle');for(var i=0,l=p3.length;i<l;i++){var s=p3[i].style;s.fill='#'+c;} }
  ]]>
</script>
</svg>
