<?xml version="1.0" encoding="utf-8"?>

<svg version="1.1" id="Vrstva_1" xmlns="http://www.w3.org/2000/svg" xmlns:xlink="http://www.w3.org/1999/xlink" x="0px" y="0px" viewBox="-1.000 -1.000 62.000 62.000" style="enable-background:new 0 0 60 60;" xml:space="preserve">

<g>
    <path d="m35.45686,44.5119c-2.33391,0 -4.57932,-0.26086 -6.49334,-0.75439c-4.59673,-1.18549 -4.74513,-2.18127 -5.14146,-4.84253c-0.03575,-0.24036 -0.07362,-0.4939 -0.11671,-0.7619c-0.13083,-0.81396 -0.30744,-1.6756 -0.47846,-2.50885c-0.51923,-2.53235 -1.00986,-4.92426 -0.21894,-5.71417c0.54145,-0.50397 1.38435,-1.07074 2.65025,-1.78088c3.22416,-1.80872 17.4412,-7.65063 22.10053,-9.18652c3.17353,-1.04633 6.86011,-2.34918 8.85509,-3.06165l1.72193,11.82538c0.0014,0.008 0.03749,0.17041 0.09913,0.44073l0.00074,0.00604c0.25082,5.40057 -0.68715,6.94568 -1.19111,7.38318c-0.41179,-0.59882 -0.8458,-1.41699 -1.2002,-2.26587c-0.06744,-0.14783 -1.63846,-3.5351 -3.63093,-3.56061c-0.28869,-0.03607 -0.57236,-0.05432 -0.84309,-0.05432c-0.84928,0 -1.51575,0.17566 -1.98087,0.52234c-1.19749,0.89221 -2.00696,2.8642 -2.36542,4.41217c-0.06338,0.27405 -0.12541,0.68176 -0.1971,1.15387c-0.34241,2.25446 -0.9799,6.45117 -3.48754,7.49176c-1.86745,0.7749 -4.96465,1.25623 -8.08234,1.25623c0,0 0,0 0,0" fill="#ccc"/>
   <path d="m8.23302,30.72986c-6.24306,0 -7.72534,-1.60968 -8.07384,-2.31458c-0.14946,-0.64331 -0.27084,-1.20563 0.87734,-2.73474c1.19709,-1.59381 4.14305,-2.32367 9.51376,-3.18701c4.86874,-0.78284 6.95314,-1.92657 9.15988,-3.13757l0.02512,-0.01392c0.31189,-0.17084 0.63421,-0.34784 0.96175,-0.52118c2.46183,-1.30396 5.56232,-1.87598 5.59344,-1.88153c7.64968,-1.24908 14.04931,-2.16913 19.04197,-2.737c-1.08542,0.37659 -2.21006,0.76459 -3.34861,1.15747l-0.36,0.12427c-1.4802,0.51086 -2.99092,1.03223 -4.48754,1.55341c-7.51287,2.61621 -14.77434,6.41626 -16.30748,7.29065c-1.63473,0.93176 -4.75475,2.50977 -6.16839,2.77777c-1.97562,0.37415 -2.43305,2.05627 -2.3988,2.89337l0.0021,0.04749l0.0073,0.05658c0.0048,0.03479 0.02603,0.18628 0.06114,0.43207c-1.48688,0.12891 -2.86543,0.1944 -4.09919,0.1944l0,0" fill="#ccc"/>
   <path d="m31.17221,47.69855c-2.18976,0 -3.93315,-0.19092 -5.18185,-0.56714c-4.37489,-1.31848 -8.76933,-2.42706 -9.00446,-2.48621c-0.03049,-0.01532 -0.2316,-0.1275 -0.50862,-0.52948c0.7697,-0.04907 1.2824,-0.10376 1.44785,-0.13043c1.36133,-0.21857 1.58966,-1.5368 1.59875,-1.59283l0.01372,-0.08392l-0.01623,-0.0835c-0.01835,-0.09351 -1.87394,-9.56641 -2.05638,-10.70221c-0.13747,-0.85413 -0.74546,-1.36371 -1.62643,-1.36371c-0.14282,0 -0.24789,0.01453 -0.2864,0.02069c-0.68469,0.09039 -1.36949,0.17181 -2.03449,0.24158c-0.044,-0.30823 -0.06816,-0.48138 -0.06816,-0.48138c-0.0012,-0.0462 -0.03397,-1.38739 1.43245,-1.6651c1.56725,-0.29718 4.76752,-1.90515 6.53622,-2.91327c1.423,-0.81116 8.76215,-4.64172 16.1094,-7.20038c1.61373,-0.56195 3.2433,-1.12427 4.83093,-1.67188c5.43364,-1.87482 10.56601,-3.64563 12.63636,-4.57758c0.0087,-0.00403 0.3113,-0.15985 0.58261,-0.15985c0.06551,0 0.12348,0.00903 0.17217,0.02753l0.05932,0.02161c0.38261,0.13715 1.39672,0.5014 1.72058,2.46838c-0.01932,0.06012 -0.10376,0.26086 -0.37758,0.33704c-0.39981,0.11053 -0.61449,0.23767 -0.62338,0.24304l-0.06261,0.03754l0.0087,0.05817c-2.01277,0.71942 -5.78031,2.05237 -9.01258,3.11792c-4.68929,1.54608 -19.01299,7.43439 -22.2673,9.25989c-3.15981,1.7724 -4.4143,2.92621 -4.0029,5.48334c0.32213,2.005 1.36522,7.91711 1.48309,8.58472c0.0056,0.0321 0.01179,0.05579 0.0199,0.07898c0.04058,0.12006 1.03363,2.96759 3.566,3.46112l0.08464,0.0166c3.29179,0.6427 6.34919,0.96869 9.08659,0.96869c1.6286,0 3.17392,-0.11578 4.59266,-0.34381c1.27208,-0.20441 2.47402,-0.50452 3.57219,-0.89172c0.14299,-0.04602 3.5774,-1.20294 4.77817,-5.71948l0.21468,-0.81195c1.01431,-3.84406 1.81547,-6.88043 3.53682,-7.43134c0.08658,-0.02759 0.17681,-0.04169 0.26841,-0.04169c1.15981,0 2.40117,2.16058 2.78146,2.99304c0.0019,0.005 0.38782,0.93005 0.91362,1.83093c0.44387,0.76038 1.12329,1.77118 1.89624,1.77118c0.1086,0 0.21662,-0.0199 0.32116,-0.05927c0.70802,-0.26611 1.20058,-1.93762 1.30145,-4.33667c0.4943,1.77856 0.74338,3.39136 -0.6315,4.99365c-1.24657,1.45294 -3.05237,1.56598 -3.57624,1.56598c-0.00016,0 0,0 -0.00016,0c-0.0657,0 -0.10261,-0.00195 -0.10435,-0.00195l-0.0085,-0.00085l-2.88368,0.2821c-0.0031,0 -0.0684,0.008 -0.17565,0.008c-0.32986,0 -1.15943,-0.07568 -1.73566,-0.77734c-0.78068,-0.95093 -0.89662,-1.07751 -0.90106,-1.08234l-0.14513,-0.1571l-0.04232,0.20947c-0.0081,0.04077 -0.84463,4.10278 -2.47865,5.73254l-0.14377,0.1438c-1.5969,1.59576 -2.47652,2.47455 -6.96523,3.19635c-0.04405,0.00696 -4.46667,0.71033 -8.64485,0.71033l0,0" fill="#ccc"/>
   <path d="m13.38373,43.26428c-3.38576,0 -9.32871,-0.362 -11.12415,-2.78796c-0.06854,-0.15503 -0.35418,-0.82202 -0.43766,-1.37598c-0.02264,-0.15002 -0.12228,-0.625 -0.31099,-1.52002c-0.32963,-1.56604 -1.17958,-5.60199 -1.50921,-7.84503c1.01185,0.91699 3.25649,1.94202 8.2313,1.94202c2.13776,0 4.64531,-0.18896 7.45281,-0.56l0.0166,-0.00299c0.0019,0 0.0563,-0.00903 0.1361,-0.00903c0.5319,0 0.6488,0.30304 0.6914,0.56702c0.1715,1.06702 1.7195,8.98499 2.0424,10.63403c-0.0517,0.17896 -0.2404,0.65399 -0.7974,0.74298c-0.3924,0.06299 -2.2131,0.21399 -4.3912,0.21399l0,0.00098zm-8.91348,-3.95398l0.04008,0.02502c0.67905,0.41998 2.16246,0.66797 5.29061,0.88397c0.3129,0.02203 0.63974,0.039 0.97159,0.05304l0.1334,0.00494l-0.9771,-6.07599l-0.09806,0.005c-0.56876,0.02899 -1.15081,0.04504 -1.73,0.04504c-1.61844,0 -3.20072,-0.11505 -4.57572,-0.33301l-0.15542,-0.02405l1.10062,5.41504" fill="#ccc"/>
</g>
<script  type="text/javascript">
  <![CDATA[
         var c=window.location.search.split('color=')[1]; c=parseInt(c,16); if(!isNaN(c)){c=c.toString(16);var p=document.getElementsByTagName('path');for(var i=0,l=p.length;i<l;i++){var s=p[i].style;s.fill='#'+c;} var p2=document.getElementsByTagName('polygon');for(var i=0,l=p2.length;i<l;i++){var s=p2[i].style;s.fill='#'+c;} var p3=document.getElementsByTagName('circle');for(var i=0,l=p3.length;i<l;i++){var s=p3[i].style;s.fill='#'+c;} }
  ]]>
</script>
</svg>
